<svg width="24" height="25" viewBox="0 0 24 25" fill="none" xmlns="http://www.w3.org/2000/svg">
<g id="solar:cart-bold-duotone">
<path id="Vector" opacity="0.5" d="M10.023 2.5C9.55887 2.5 9.11375 2.68437 8.78556 3.01256C8.45737 3.34075 8.27299 3.78587 8.27299 4.25C8.27299 4.71413 8.45737 5.15925 8.78556 5.48744C9.11375 5.81563 9.55887 6 10.023 6H14.023C14.4871 6 14.9322 5.81563 15.2604 5.48744C15.5886 5.15925 15.773 4.71413 15.773 4.25C15.773 3.78587 15.5886 3.34075 15.2604 3.01256C14.9322 2.68437 14.4871 2.5 14.023 2.5H10.023ZM3.887 16.705C3.029 13.273 2.59999 11.558 3.49999 10.404C4.39999 9.25 6.16999 9.25 9.70799 9.25H14.338C17.876 9.25 19.644 9.25 20.545 10.404C21.446 11.558 21.017 13.274 20.159 16.705C19.613 18.888 19.341 19.979 18.527 20.615C17.713 21.25 16.588 21.25 14.338 21.25H9.70799C7.45799 21.25 6.33299 21.25 5.519 20.615C4.705 19.979 4.432 18.888 3.887 16.705Z" fill="black"/>
<path id="Vector_2" d="M15.604 5.00201C15.7163 4.76783 15.7748 4.51147 15.7752 4.25173C15.7755 3.992 15.7177 3.73549 15.606 3.50101C16.289 3.50601 16.822 3.53701 17.297 3.72301C17.8652 3.94528 18.3594 4.32302 18.723 4.81301C19.09 5.30701 19.263 5.94001 19.5 6.81201L19.546 6.98201L20.059 9.94501C19.65 9.66301 19.123 9.49501 18.441 9.39501L18.081 7.30801C17.796 6.26801 17.693 5.94101 17.519 5.70701C17.3232 5.44312 17.057 5.23969 16.751 5.12001C16.531 5.03401 16.266 5.01001 15.604 5.00201ZM8.44101 3.50101C8.32929 3.73549 8.27149 3.992 8.27183 4.25173C8.27218 4.51147 8.33067 4.76783 8.44301 5.00201C7.78101 5.00901 7.51601 5.03401 7.29601 5.12001C6.98997 5.23969 6.72382 5.44312 6.52801 5.70701C6.35401 5.94101 6.25101 6.26801 5.96701 7.30701L5.60601 9.39601C4.92401 9.49601 4.39701 9.66301 3.98801 9.94401L4.50101 6.98201L4.54701 6.81201C4.78401 5.94001 4.95701 5.30701 5.32401 4.81201C5.68787 4.32276 6.18203 3.94573 6.75001 3.72401C7.22501 3.53801 7.75801 3.50701 8.44101 3.50201" fill="white"/>
</g>
</svg>
